/* XPM */
static char *ZXhpdF9jZF9zbm93[] = {
/* columns rows colors chars-per-pixel */
"32 32 9 1 ",
"  c white",
". c #9BADB7",
"X c #14182E",
"o c #FFEE83",
"O c #AD2F45",
"+ c #F5FFE8",
"@ c #E64539",
"# c #CBDBFC",
"$ c #F0B541",
/* pixels */
"                                ",
"                      .         ",
"    XXXX             . .XXXX    ",
"    XXXX              . XXXX    ",
"    XXXX                XXXX    ",
"  XXooXXXXXXXXXXXXXXXXXXXXooXX  ",
"  XXooXXXXXXXXXXXXXXXXXXXXooXX  ",
"  XXooXXOOOOOOOOOOOOOOOOXXooXX  ",
"  XXooXXOOOOOOOOOOOOOOOOXXooXX  ",
"  XX++XX@@@@@@@@@@@@@@@@XX++XX  ",
"  XX++XX@@@@@@@@@@@@@@@@XX++XX  ",
"  XXooXXOOOOOOOOOOOOOOOOXXooXX  ",
"  XXooXXOOOOOOOOOOOOOOOOXXooXX  ",
"  XXooXXOOOOOOOOOOOOOOOOXXooXX  ",
"  XXooXXOOOOXXXXXXXXOOOOXXooXX  ",
"# XXooXXOOOOXXXXXXXXOOOOXXooXX  ",
" #XXooXXXXXX++++++++XXXXXXooXX #",
"# XXooXXXXXX++++++++XXXXXXooXX  ",
"  XXoooooo$$ooXXXXoo$$ooooooXX  ",
"  XXoooooo$$ooXXXXoo$$ooooooXX  ",
"  XXoooooo$$ooXXXXoo$$ooooooXX  ",
"  XXXXXXXXXXooXXXXooXXXXXXXXXX  ",
"  XXXXXXXXXXooXXXXooXXXXXXXXXX  ",
"  XX$$XXOOOOXXooooXXOOOOXX$$XX  ",
"  XX$$XXOOOOXXooooXXOOOOXX$$XX  ",
"  XXooXXXXXXXXXXXXXXXXXXXXooXX  ",
"  XXooXXXXXXXXXXXXXXXXXXXXooXX  ",
"  XXooooooooooooooooooooooooXX  ",
"  XXooooooooooooooooooooooooXX  ",
"  XXooooooooooooooooooooooooXX  ",
"  XX$$XXXXXXXXXXXXXXXXXXXX$$XX  ",
"  XX$$XXXXXXXXXXXXXXXXXXXX$$XX  "
};
