/* XPM */
static char *Y29pbl9zbm93[] = {
/* columns rows colors chars-per-pixel */
"32 32 6 1 ",
"  c white",
". c #14182E",
"X c #9BADB7",
"o c #FFEE83",
"O c #F5FFE8",
"+ c #63AB3F",
/* pixels */
"          ............          ",
"          ............X         ",
"          ............ X        ",
"          ............X         ",
"    ......oooooooooooo......    ",
"    ......oooooooooooo......    ",
"    ......oooooooooooo......    ",
"    ......oooooooooooo......    ",
"    ......oooooooooooo......    ",
"    ......oooooooooooo......    ",
"....ooooooOOOO++++++++oooooo....",
"....ooooooOOOO++++++++oooooo....",
"....ooooooOOOO++++++++oooooo....",
"....ooooooOOOO++++++++oooooo....",
"....oooooo++++++++++++oooooo....",
"....oooooo++++++++++++oooooo....",
"....oooooo++++++++++++oooooo....",
"....oooooo++++++++++++oooooo....",
"....oooooo++++++++++++oooooo....",
"....oooooo++++++++++++oooooo....",
"....oooooo++++++++++++oooooo....",
"....oooooo++++++++++++oooooo....",
"    ......oooooooooooo......    ",
"    ......oooooooooooo......    ",
"    ......oooooooooooo......    ",
"    ......oooooooooooo......    ",
"    ......oooooooooooo......    ",
"    ......oooooooooooo......    ",
"          ............          ",
"          ............          ",
"          ............          ",
"          ............          "
};
