/* XPM */
static char *ZXhpdF9vcF9zbm93[] = {
/* columns rows colors chars-per-pixel */
"32 32 8 1 ",
"  c white",
". c #9BADB7",
"X c #14182E",
"o c #FFEE83",
"O c #F5FFE8",
"+ c #F0B541",
"@ c #CBDBFC",
"# c #AD2F45",
/* pixels */
"                                ",
"                      .         ",
"    XXXX             . .XXXX    ",
"    XXXX              . XXXX    ",
"  XXooXXXXXXXXXXXXXXXXXXXXooXX  ",
"  XXooXXXXXXXXXXXXXXXXXXXXooXX  ",
"  XXooXXXXXXOOXXXXOOXXXXXXooXX  ",
"  XXooXXXXXXOOXXXXOOXXXXXXooXX  ",
"  XXoooooo++ooXXXXoo++ooooooXX  ",
"  XXoooooo++ooXXXXoo++ooooooXX  ",
"  XXXXXXXXXXXXooooXXXXXXXXXXXX  ",
"  XXXXXXXXXXXXooooXXXXXXXXXXXX  ",
"  XXXXXXXXXXXXXXXXXXXXXXXXXXXX  ",
"  XXXXXXXXXXXXXXXXXXXXXXXXXXXX  ",
"  XX++XXXXXXXXXXXXXXXXXXXX++XX  ",
"@ XX++XXXXXXXXXXXXXXXXXXXX++XX  ",
" @XX++XXXXXXXXXXXXXXXXXXXX++XX @",
"@ XX++XXXXXXXXXXXXXXXXXXXX++XX  ",
"  XX++XXXXXXXXXXXXXXXXXXXX++XX  ",
"  XX++XXXXXXXXXXXXXXXXXXXX++XX  ",
"  XX++XXXXXXXXXXXXXXXXXXXX++XX  ",
"  XX++XXXXXXXXXXXXXXXXXXXX++XX  ",
"  XXooXX################XXooXX  ",
"  XXooXX################XXooXX  ",
"  XXooXX################XXooXX  ",
"  XXooXX################XXooXX  ",
"  XXooXXXXXXXXXXXXXXXXXXXXooXX  ",
"  XXooXXXXXXXXXXXXXXXXXXXXooXX  ",
"  XXooooooooooooooooooooooooXX  ",
"  XXooooooooooooooooooooooooXX  ",
"  XX++XXXXXXXXXXXXXXXXXXXX++XX  ",
"  XX++XXXXXXXXXXXXXXXXXXXX++XX  "
};
