/* XPM */
static char *result[] = {
/* columns rows colors chars-per-pixel */
"32 32 8 1 ",
"  c white",
". c #14182E",
"X c #9BADB7",
"o c #A3A7C2",
"O c #DFE0E8",
"+ c #686F99",
"@ c #AD2F45",
"# c #CBDBFC",
/* pixels */
"          ............          ",
"          ............X         ",
"        ..ooOOOOOOOOoo..        ",
"        ..ooOOOOOOOOoo..        ",
"      ..ooOOOOOOOOOOOOoo..      ",
"      ..ooOOOOOOOOOOOOoo..      ",
"      ..ooOOOOOOOOOOOOoo..      ",
"      ..ooOOOOOOOOOOOOoo..      ",
"      ..++ooOOOOOOOOoo++..      ",
"      ..++ooOOOOOOOOoo++..      ",
"      ..oo..ooOOOOoo..oo..      ",
"      ..oo..ooOOOOoo..oo..      ",
"      ..oo....oooo....oo..      ",
"      ..oo....oooo....oo..      ",
"      ..oo..@@OOOO@@..oo..      ",
"#     ..oo..@@OOOO@@..oo..      ",
" #      ..ooOO++++OOoo..       #",
"#       ..ooOO++++OOoo..        ",
"      ....OO..OOOO..OO....      ",
"      ....OO..OOOO..OO....      ",
"    ..OOOO............OOOO..    ",
"    ..OOOO............OOOO..    ",
"  ..OOoo..++ooOOOOoo++..ooOO..  ",
"  ..OOoo..++ooOOOOoo++..ooOO..  ",
"  ..OOOO..ooOO++++OOoo..OOOO..  ",
"  ..OOOO..ooOO++++OOoo..OOOO..  ",
"    ........++oooo++........    ",
"    ........++oooo++........    ",
"        ..oooo....oooo..        ",
"        ..oooo....oooo..        ",
"          ....#   ....          ",
"          ....    ....          "
};
