/* XPM */
static char *_880e19e716e4da09d2c4ff89e19dfc9fGFW4xNbwFnaYCEt[] = {
/* columns rows colors chars-per-pixel */
"32 32 94 2 ",
"   c white",
".  c #741E01",
"X  c #9BADB7",
"o  c #A13F01",
"O  c #D15C00",
"+  c #731E01",
"@  c #741F02",
"#  c #B84D00",
"$  c #A13E01",
"%  c #752003",
"&  c #731D00",
"*  c #D3760D",
"=  c #D47810",
"-  c #A13E00",
";  c #D3750B",
":  c #D3750A",
">  c #D1730A",
",  c #B84E01",
"<  c #551D0B",
"1  c #561F0D",
"2  c #B84E02",
"3  c #B94E02",
"4  c #541C0A",
"5  c #531A08",
"6  c #D15D01",
"7  c #592311",
"8  c #B94F03",
"9  c #57200E",
"0  c #521907",
"q  c #501805",
"w  c #D15D02",
"e  c #5A2412",
"r  c #B95005",
"t  c #501704",
"y  c #5B2614",
"u  c #CBDBFC",
"i  c #B95004",
"p  c #A24002",
"a  c #57210F",
"s  c #BA5106",
"d  c #5D2817",
"f  c #A24104",
"g  c #A24003",
"h  c #BA5308",
"j  c #511906",
"k  c #531B09",
"l  c #BA5207",
"z  c #5E2A19",
"x  c #6A5089",
"c  c #A34307",
"v  c #A34205",
"b  c #5A2513",
"n  c #9F8EB3",
"m  c #7545AD",
"M  c #8F68BC",
"N  c #644A84",
"B  c #6C40A2",
"V  c #5F4380",
"C  c #6D548B",
"Z  c #6F44A4",
"A  c #8873A0",
"S  c #614681",
"D  c #653C94",
"F  c #533977",
"G  c #7F4BBA",
"H  c #5A3D7C",
"J  c #5D417F",
"K  c #694F87",
"L  c #6B4399",
"P  c #816C9B",
"I  c #F4F2F6",
"U  c #5B3F7D",
"Y  c #5D417E",
"T  c #664B85",
"R  c #695088",
"E  c #5E427F",
"W  c #653D95",
"Q  c #5B3E7C",
"!  c #5F4480",
"~  c #624782",
"^  c #694197",
"/  c #FCFCFD",
"(  c #643B94",
")  c #5C407D",
"_  c #663D95",
"`  c #684096",
"'  c #654B85",
"]  c #663E96",
"[  c #5E4584",
"{  c #673F96",
"}  c #674D86",
"|  c #634883",
" . c #604581",
".. c #573C7D",
/* pixels */
"                                                                ",
"                        . . . . . . . . .   X                   ",
"                    . . o o o . O . o o o + . X                 ",
"                @ @ o o o . . o # o . . o o $ . @               ",
"              % o # o O O # o & & & o # O O o # o @             ",
"            @ o # o O O O # & o o o & # O O O o # o @           ",
"          @ o # o O * O # & # O O O # & # O = O o # - @         ",
"          @ # o O O O O o # O O O O O # o O O O O o # @         ",
"        & o # o O O O # - O O ; : > O O o # O O O o # - .       ",
"        & o o O O O O - # O O ; : ; O O # - O O O O - - &       ",
"        & o - , O O O - # O O O O O O O # - O O O # - - &       ",
"        & o - , , O O < # O O O O O O O # 1 O O , # - - &       ",
"        & - - , 2 3 4 4 5 6 O O O O 6 6 4 1 7 , , , - - &       ",
"        & o & 8 8 9 4 4 0 q 6 6 6 6 w 0 4 1 e e 3 , & - &       ",
"          & & r r - 4 4 0 q 3 3 t 3 3 0 < 9 y - 8 3 & &         ",
"u         & & o r i i - 8 3 3 t t q 3 3 8 - 8 8 8 - & &         ",
"  u         & p o a s - i 8 8 8 8 8 8 8 i - r d o - &         u ",
"u             & f g < < h s q q q j k r l e z p p &             ",
"              x & c v 4 0 q t t q j k k 9 b v v & n             ",
"              x m & & v & g g g p g g g & v & & M n             ",
"              N B m V & & & & & & & & & & & C m Z A             ",
"              S D m F G G H G G G G G J G G K m L P             ",
"              I J B U m m H G G G G G Y m m T B R               ",
"        Y E V I J W B U Q m m m m m m m ! ~ B ^ R               ",
"    / Q ( ( ( ) ) Q _ B m m m m m m m m m B ` '   u             ",
"    H H Q Q ( ( ( D _ _ B m m m m m m m B ` ] [   u             ",
"            U ( ( ( W W _ ] B B B B B ` { _ } u   u             ",
"              U ( ( W W _ ] { { ` ` ` ` { |   u                 ",
"                U Q D D W ] ] ] { { {  .~                       ",
"                    Q Q Q ..) ) Y V S                           ",
"                        u   u                                   ",
"                          u                                     "
};
