/* XPM */
static char *_674e0e498b649c581d83e85336c5baf9ER7LMvHarfTzmHa[] = {
/* columns rows colors chars-per-pixel */
"16 16 11 1 ",
"  c black",
". c #000100",
"X c #010101",
"o c #60630A",
"O c #B59810",
"+ c #B69911",
"@ c #FEFFFD",
"# c #FDFFFE",
"$ c #FEFEFE",
"% c #FEFFFF",
"& c white",
/* pixels */
"&&&&&&&&&&&&&&&&",
"&&&&&&&&&&&&&&&&",
"&&&&&&&&&&&&&&&&",
"&&&&&&&&&&&&&&&&",
"&&&&&&    &&&&&&",
"&&&&&      &&&&&",
"&&&&  &&&&  &&&&",
"&&&& & && & &&&&",
"&&&& & && & &&&&",
"&&&  &&++&&  &&&",
"&&  &&&&&&&&  &&",
"&&  &&&&&&&&  &&",
"&&  &&&&&&&&  &&",
"&&&  &&&&&&  &&&",
"&&&& &&&&&& &&&&",
"&&&&&+o  oO&&&&&"
};
